# xmcd CD database file
#
# Track frame offsets:
#	150
#	13580
#	28326
#	44885
#	59151
#	72588
#	86431
#	100308
#	114111
#	130014
#	145422
#	158177
#	171558
#	183928
#	197753
#	209134
#	223409
#	237306
#	252894
#	266802
#	279560
#	293047
#	304913
#	318985
#	332474
#
# Disc length: 4627 seconds
#
# Revision: 0
# Processed by: cddbd v1.5.1PL2 Copyright (c) Steve Scherf et al.
# Submitted via: CDex 1.51
#
DISCID=94121119
DTITLE=Louis Armstrong - The Essential
DYEAR=2005
DGENRE=Jazz
TTITLE0=On The Sunnyside Of The Street
TTITLE1=Sweethearts On Parade
TTITLE2=Wrap Your Troubles In Dreams
TTITLE3=Once In A While
TTITLE4=No Variety Blues
TTITLE5=Joseph 'N' His Brudders
TTITLE6=Where The Blues Were Born In New Orleans
TTITLE7=Blues From The South
TTITLE8=Song Of The Islands
TTITLE9=Knockin' A Jug
TTITLE10=Gut Bucket Blues
TTITLE11=You Are My Lucky Star
TTITLE12=Yes I'm In A Barrel
TTITLE13=I Double Dare You
TTITLE14=Love Walked In
TTITLE15=Red Sails In The Street
TTITLE16=Save It Pretty Mama
TTITLE17=Shoeshine Boy
TTITLE18=Thankful
TTITLE19=When The Saints Go Marching In
TTITLE20=Solitude
TTITLE21=Thanks A Million
TTITLE22=On Treasure Island
TTITLE23=I Come From A Musical Family
TTITLE24=I Hope Gabriel Likes My Music
EXTD=YEAR: 2005
EXTT0=
EXTT1=
EXTT2=
EXTT3=
EXTT4=
EXTT5=
EXTT6=
EXTT7=
EXTT8=
EXTT9=
EXTT10=
EXTT11=
EXTT12=
EXTT13=
EXTT14=
EXTT15=
EXTT16=
EXTT17=
EXTT18=
EXTT19=
EXTT20=
EXTT21=
EXTT22=
EXTT23=
EXTT24=
PLAYORDER=
